<svg width="1052" height="261" viewBox="0 0 1052 261" fill="none" xmlns="http://www.w3.org/2000/svg">
<path d="M256.413 93.5003V260.417H22.471C37.097 227.011 56.1137 195.629 75.8717 164.944C83.8953 152.546 92.2061 140.338 100.869 128.385C103.709 124.494 106.856 120.238 110.569 115.377C109.799 116.985 109.01 118.646 108.201 120.364C101.748 133.982 92.0796 155.94 84.5503 173.745C84.1588 174.668 83.7725 175.58 83.394 176.475C83.1886 176.958 82.9826 177.442 82.7761 177.928C75.9633 194.633 68.2129 210.398 63.3987 228.504L63.4016 228.621C63.4159 228.818 63.4301 229.015 63.4444 229.211C63.6568 232.702 66.2552 235.346 68.7782 236.928L68.797 236.94C71.3848 238.526 74.4483 239.836 77.7989 239.604C79.9906 239.427 82.4381 238.967 84.3615 237.178C111.868 207.632 136.827 176.269 162.547 145.399C169.158 137.356 175.747 129.343 182.36 121.311C184.023 119.292 185.689 117.269 187.357 115.245C182.69 122.951 179.601 128.186 177.028 132.536C175.172 135.686 173.605 138.361 171.939 141.214C171.811 141.433 171.683 141.653 171.556 141.872C164.518 153.84 152.175 175.852 146.238 187.524C145.796 188.382 145.356 189.239 144.922 190.088L144.92 190.093C144.572 190.782 144.24 191.443 143.897 192.13C140.581 198.834 137.321 205.561 134.49 213.182C134.117 214.206 133.76 215.249 133.431 216.303C132.683 218.804 131.892 221.327 132.022 224.261C132.287 228.655 134.615 232.825 137.836 235.648L137.846 235.658C141.645 239.087 147.004 240.099 151.789 239.687C161.835 237.921 168.763 231.045 175.885 225.143C176.16 224.9 176.437 224.655 176.716 224.406C185.864 216.241 194.009 207.69 198.884 200.384C199.246 199.845 199.59 199.314 199.911 198.802L199.913 198.798C201.547 196.165 202.506 193.566 202.258 191.444L202.24 191.346C201.335 188.638 200.774 187.151 200.61 187.049C200.685 186.956 200.675 186.315 200.464 185.232L200.47 185.264C200.414 184.657 200.323 183.902 200.135 183.011L200.059 182.67C199.898 181.422 199.623 179.97 199.286 178.288L199.279 178.262C199.075 177.465 198.846 176.621 198.41 175.724C198.172 175.286 197.948 174.78 197.265 174.364C196.921 174.154 196.353 174.108 195.966 174.274C195.569 174.43 195.317 174.661 195.098 174.886C194.982 175.009 194.88 175.132 194.782 175.262L194.756 175.299C194.549 175.607 194.309 175.909 194.045 176.203C193.467 176.882 193.045 177.531 192.58 178.221C187.195 184.83 180.436 193.059 172.449 200.515C168.755 203.868 164.815 207.222 160.406 209.158C167.412 192.442 176.823 176.54 185.768 160.627C186.496 159.342 187.247 158.023 188.047 156.62C192.461 148.881 197.889 139.593 203.336 130.479C208.702 121.493 214.079 112.676 218.443 105.58C219.825 103.334 221.214 101.084 222.701 98.6833C225.979 93.4017 229.758 87.3174 235.198 78.7038L256.413 93.5003Z" fill="#133348"/>
<path d="M208.542 60.1121C208.001 60.6213 207.478 61.101 206.954 61.5297C198.191 69.7222 187.662 81.44 182.356 87.2682C181.646 88.0507 180.921 88.8505 180.157 89.699C173.872 96.6966 166.394 105.25 161.078 111.54C159.241 113.709 157.462 115.84 155.506 118.197C150.52 124.225 144.32 131.698 133.283 145.342C129.602 149.926 125.382 155.192 120.506 161.359C114.408 169.077 109.953 175.038 106.288 180.047C105.08 181.699 103.958 183.247 102.894 184.721C104.397 181.376 106.347 177.056 109.621 169.812C115.734 156.308 121.017 144.89 125.594 135.021C134.953 114.873 141.362 101.27 146.611 90.3344C147.248 88.993 147.863 87.6994 148.461 86.4397C148.909 85.496 149.34 84.5843 149.771 83.6698C152.234 78.016 154.971 73.1376 156.881 66.504C156.281 63.3326 153.496 62.7722 151.582 62.022C148.591 61.0272 145.389 60.6342 142.248 60.8761C140.054 61.1034 137.447 61.3328 135.7 63.5935L135.756 63.5211C135.722 63.5609 135.689 63.5902 135.667 63.6087C135.625 63.5996 135.573 63.587 135.519 63.5718C135.394 63.5364 135.255 63.4903 135.116 63.4414C134.841 63.3441 134.559 63.2331 134.276 63.1175C133.44 62.7141 132.499 62.4571 131.542 62.4285C131.311 62.4204 131.077 62.425 130.844 62.4419C127.85 62.7897 125.538 64.5414 123.197 66.3171C111.645 75.9206 100.367 91.0025 89.4884 105.603C86.3564 109.854 83.2854 114.097 80.3381 118.238C74.8978 125.881 68.4339 135.221 61.3919 145.857C56.6585 153.004 51.6621 160.739 46.5271 168.93C46.2231 169.412 45.919 169.896 45.615 170.38C36.1841 185.326 26.9638 200.41 18.0819 215.696C15.5115 220.121 12.9704 224.563 10.464 229.023C7.04301 235.481 3.16901 241.58 0 248.172V93.5003L128.206 4.0806L208.542 60.1121Z" fill="#133348"/>
<path d="M200.482 186.857C200.523 186.966 200.553 187.033 200.577 187.054C200.56 187.08 200.556 187.154 200.566 187.274L200.507 187.067C200.502 187.007 200.494 186.937 200.482 186.857Z" fill="#133348"/>
<path d="M374.334 217.956V260.417H369.404L346.942 226.442V260.417H342.012V217.956H346.942L369.462 251.989V217.956H374.334Z" fill="#133348"/>
<path d="M418.066 256.363V260.417H395.079V256.363H418.066ZM396.187 217.956V260.417H391.257V217.956H396.187ZM415.09 236.474V240.528H395.079V236.474H415.09ZM417.803 217.956V222.039H395.079V217.956H417.803Z" fill="#133348"/>
<path d="M436.798 217.956V260.417H431.868V217.956H436.798ZM462.673 217.956L444.791 237.641L435.106 247.498L434.377 242.19L441.816 234.141L456.693 217.956H462.673ZM458.093 260.417L441.611 239.332L444.558 235.395L463.986 260.417H458.093Z" fill="#133348"/>
<path d="M500.892 217.956H505.793V246.681C505.793 249.87 505.093 252.523 503.693 254.643C502.292 256.762 500.435 258.356 498.121 259.425C495.806 260.475 493.278 261 490.536 261C487.677 261 485.091 260.475 482.777 259.425C480.482 258.356 478.663 256.762 477.322 254.643C475.999 252.523 475.338 249.87 475.338 246.681V217.956H480.21V246.681C480.21 248.995 480.647 250.91 481.522 252.426C482.397 253.943 483.603 255.08 485.139 255.838C486.695 256.577 488.494 256.946 490.536 256.946C492.578 256.946 494.377 256.577 495.933 255.838C497.489 255.08 498.704 253.943 499.579 252.426C500.454 250.91 500.892 248.995 500.892 246.681V217.956Z" fill="#133348"/>
<path d="M544.799 249.772C544.799 248.723 544.634 247.789 544.303 246.973C543.973 246.156 543.409 245.417 542.611 244.756C541.814 244.095 540.725 243.473 539.344 242.89C537.983 242.307 536.262 241.714 534.181 241.111C532.081 240.489 530.175 239.808 528.463 239.07C526.771 238.311 525.323 237.446 524.117 236.474C522.911 235.502 521.987 234.384 521.346 233.12C520.704 231.857 520.383 230.389 520.383 228.717C520.383 227.064 520.723 225.548 521.404 224.168C522.085 222.787 523.057 221.591 524.321 220.58C525.605 219.57 527.121 218.782 528.872 218.218C530.641 217.655 532.606 217.373 534.764 217.373C537.876 217.373 540.531 217.966 542.728 219.152C544.945 220.337 546.637 221.903 547.804 223.847C548.99 225.791 549.583 227.891 549.583 230.146H544.683C544.683 228.474 544.303 226.987 543.545 225.684C542.806 224.362 541.697 223.332 540.219 222.593C538.761 221.835 536.943 221.455 534.764 221.455C532.645 221.455 530.885 221.776 529.484 222.418C528.084 223.059 527.034 223.924 526.334 225.013C525.634 226.083 525.284 227.298 525.284 228.659C525.284 229.592 525.478 230.447 525.867 231.225C526.256 231.983 526.859 232.693 527.676 233.354C528.512 234.015 529.591 234.627 530.914 235.191C532.256 235.755 533.87 236.289 535.756 236.795C538.109 237.456 540.161 238.195 541.911 239.011C543.662 239.808 545.11 240.722 546.258 241.753C547.425 242.764 548.3 243.93 548.883 245.252C549.467 246.555 549.758 248.042 549.758 249.714C549.758 251.444 549.399 253.009 548.679 254.409C547.979 255.79 546.977 256.976 545.674 257.967C544.371 258.939 542.816 259.688 541.007 260.213C539.198 260.738 537.195 261 534.998 261C533.072 261 531.167 260.738 529.28 260.213C527.394 259.688 525.673 258.891 524.117 257.821C522.58 256.752 521.346 255.42 520.412 253.826C519.498 252.212 519.041 250.326 519.041 248.168H523.913C523.913 249.743 524.224 251.085 524.846 252.193C525.468 253.301 526.305 254.205 527.355 254.905C528.424 255.605 529.62 256.12 530.943 256.451C532.265 256.781 533.617 256.946 534.998 256.946C537.059 256.946 538.819 256.655 540.278 256.072C541.736 255.488 542.855 254.662 543.632 253.593C544.41 252.504 544.799 251.23 544.799 249.772Z" fill="#133348"/>
<path d="M578.992 217.956V260.417H574.15V217.956H578.992ZM592.966 217.956V222.039H560.206V217.956H592.966Z" fill="#133348"/>
<path d="M618.874 221.28L604.609 260.417H599.563L615.694 217.956H619.02L618.874 221.28ZM631.214 260.417L616.92 221.28L616.774 217.956H620.099L636.289 260.417H631.214ZM629.843 244.961V249.043H606.418V244.961H629.843Z" fill="#133348"/>
<path d="M650.384 217.956H655.168L669.724 253.534L684.252 217.956H689.065L671.562 260.417H667.828L650.384 217.956ZM648.808 217.956H653.067L653.709 243.152V260.417H648.808V217.956ZM686.381 217.956H690.611V260.417H685.71V243.152L686.381 217.956Z" fill="#133348"/>
<path d="M712.931 217.956V260.417H708.001V217.956H712.931Z" fill="#133348"/>
<path d="M757.072 256.363V260.417H734.085V256.363H757.072ZM735.193 217.956V260.417H730.263V217.956H735.193ZM754.096 236.474V240.528H734.085V236.474H754.096ZM756.809 217.956V222.039H734.085V217.956H756.809Z" fill="#133348"/>
<path d="M797.775 217.956V260.417H792.845V217.956H797.775ZM804.98 208.711V212.386H785.931V208.711H804.98Z" fill="#133348"/>
<path d="M830.363 243.532H818.753V239.478H830.363C832.678 239.478 834.554 239.109 835.993 238.37C837.433 237.631 838.483 236.61 839.144 235.308C839.805 234.005 840.136 232.527 840.136 230.875C840.136 229.32 839.805 227.871 839.144 226.53C838.483 225.169 837.433 224.08 835.993 223.263C834.554 222.447 832.678 222.039 830.363 222.039H820.037V260.417H815.107V217.956H830.363C833.533 217.956 836.207 218.51 838.386 219.618C840.583 220.707 842.246 222.223 843.374 224.168C844.502 226.092 845.066 228.309 845.066 230.817C845.066 233.5 844.502 235.794 843.374 237.699C842.246 239.604 840.583 241.053 838.386 242.044C836.207 243.036 833.533 243.532 830.363 243.532Z" fill="#133348"/>
<path d="M870.245 221.28L855.98 260.417H850.934L867.065 217.956H870.391L870.245 221.28ZM882.584 260.417L868.29 221.28L868.145 217.956H871.47L887.66 260.417H882.584ZM881.213 244.961V249.043H857.789V244.961H881.213Z" fill="#133348"/>
<path d="M923.312 249.772C923.312 248.723 923.147 247.789 922.816 246.973C922.486 246.156 921.922 245.417 921.124 244.756C920.327 244.095 919.238 243.473 917.857 242.89C916.496 242.307 914.775 241.714 912.694 241.111C910.593 240.489 908.688 239.808 906.976 239.07C905.284 238.311 903.835 237.446 902.63 236.474C901.424 235.502 900.5 234.384 899.858 233.12C899.216 231.857 898.896 230.389 898.896 228.717C898.896 227.064 899.236 225.548 899.917 224.168C900.597 222.787 901.57 221.591 902.834 220.58C904.117 219.57 905.634 218.782 907.385 218.218C909.154 217.655 911.118 217.373 913.277 217.373C916.389 217.373 919.043 217.966 921.241 219.152C923.458 220.337 925.15 221.903 926.317 223.847C927.503 225.791 928.096 227.891 928.096 230.146H923.195C923.195 228.474 922.816 226.987 922.058 225.684C921.319 224.362 920.21 223.332 918.732 222.593C917.274 221.835 915.455 221.455 913.277 221.455C911.157 221.455 909.397 221.776 907.997 222.418C906.597 223.059 905.547 223.924 904.847 225.013C904.146 226.083 903.796 227.298 903.796 228.659C903.796 229.592 903.991 230.447 904.38 231.225C904.769 231.983 905.372 232.693 906.188 233.354C907.025 234.015 908.104 234.627 909.427 235.191C910.768 235.755 912.383 236.289 914.269 236.795C916.622 237.456 918.674 238.195 920.424 239.011C922.174 239.808 923.623 240.722 924.771 241.753C925.938 242.764 926.813 243.93 927.396 245.252C927.98 246.555 928.271 248.042 928.271 249.714C928.271 251.444 927.911 253.009 927.192 254.409C926.492 255.79 925.49 256.976 924.187 257.967C922.884 258.939 921.328 259.688 919.52 260.213C917.711 260.738 915.708 261 913.51 261C911.585 261 909.679 260.738 907.793 260.213C905.906 259.688 904.185 258.891 902.63 257.821C901.093 256.752 899.858 255.42 898.925 253.826C898.011 252.212 897.554 250.326 897.554 248.168H902.425C902.425 249.743 902.737 251.085 903.359 252.193C903.981 253.301 904.817 254.205 905.868 254.905C906.937 255.605 908.133 256.12 909.456 256.451C910.778 256.781 912.13 256.946 913.51 256.946C915.572 256.946 917.332 256.655 918.791 256.072C920.249 255.488 921.367 254.662 922.145 253.593C922.923 252.504 923.312 251.23 923.312 249.772ZM908.639 206.495L913.277 211.686L917.886 206.495H922.029V206.816L914.794 214.66H911.731L904.613 206.787V206.495H908.639Z" fill="#133348"/>
<path d="M967.103 217.956H972.003V246.681C972.003 249.87 971.303 252.523 969.903 254.643C968.503 256.762 966.646 258.356 964.331 259.425C962.017 260.475 959.489 261 956.747 261C953.888 261 951.301 260.475 948.987 259.425C946.692 258.356 944.874 256.762 943.532 254.643C942.21 252.523 941.549 249.87 941.549 246.681V217.956H946.42V246.681C946.42 248.995 946.858 250.91 947.733 252.426C948.608 253.943 949.814 255.08 951.35 255.838C952.906 256.577 954.705 256.946 956.747 256.946C958.789 256.946 960.588 256.577 962.143 255.838C963.699 255.08 964.915 253.943 965.79 252.426C966.665 250.91 967.103 248.995 967.103 246.681V217.956Z" fill="#133348"/>
<path d="M989.452 217.956H994.236L1008.79 253.534L1023.32 217.956H1028.13L1010.63 260.417H1006.9L989.452 217.956ZM987.877 217.956H992.136L992.778 243.152V260.417H987.877V217.956ZM1025.45 217.956H1029.68V260.417H1024.78V243.152L1025.45 217.956Z" fill="#133348"/>
<path d="M1052 217.956V260.417H1047.07V217.956H1052Z" fill="#133348"/>
<path d="M588.675 83.9852C594.423 83.9852 597.297 85.9498 597.297 89.8789C597.297 91.9946 596.805 93.5436 595.822 94.5259C594.839 95.5082 592.721 98.795 589.469 104.386C586.293 109.902 582.738 117.005 578.805 125.694C574.948 134.308 572.452 141.675 571.318 147.796C571.091 148.551 570.978 149.609 570.978 150.969C570.978 155.125 572.112 157.203 574.381 157.203C576.65 157.203 579.335 156.145 582.435 154.03C585.536 151.838 588.297 149.534 590.717 147.116C593.137 144.622 595.482 142.091 597.75 139.522C600.095 136.953 601.494 135.48 601.948 135.102C602.402 134.724 603.082 134.535 603.99 134.535C605.427 134.535 606.297 135.631 606.599 137.822C606.902 140.013 607.053 142.28 607.053 144.622C607.053 146.965 606.826 148.589 606.372 149.496C604.179 153.803 599.339 158.979 591.851 165.024C584.44 171.068 577.671 174.091 571.545 174.091C565.494 174.091 561.032 172.24 558.158 168.537C555.284 164.835 553.848 160.754 553.848 156.296C553.848 151.763 554.604 147.796 556.116 144.396C549.839 152.556 542.617 159.47 534.449 165.137C526.356 170.804 519.739 173.637 514.596 173.637C509.453 173.637 505.256 172.088 502.004 168.991C497.844 165.137 495.764 159.81 495.764 153.01C495.764 146.134 497.277 139.258 500.302 132.382C503.403 125.43 507.449 119.121 512.44 113.454C517.432 107.711 522.915 102.497 528.89 97.8128C541.444 87.9899 553.016 83.0785 563.604 83.0785C567.688 83.0785 571.015 83.7585 573.587 85.1186C576.158 86.4787 577.784 88.1788 578.465 90.2189C580.28 87.4988 581.793 85.7987 583.003 85.1186C584.288 84.363 586.179 83.9852 588.675 83.9852ZM573.587 96.566C560.654 96.566 547.268 103.744 533.428 118.101C528.512 123.239 523.974 129.397 519.814 136.575C515.73 143.753 513.688 148.665 513.688 151.309C513.688 153.954 514.445 155.276 515.957 155.276C518.075 155.276 523.974 151.121 533.654 142.809C543.335 134.422 549.764 128.264 552.94 124.334C556.419 119.952 563.301 110.696 573.587 96.566Z" fill="#133348"/>
<path d="M601.643 172.844L594.382 171.257C592.189 171.031 590.374 169.633 588.937 167.064C588.559 166.384 588.332 165.968 588.256 165.817C588.105 165.666 588.029 165.477 588.029 165.25C588.029 165.024 588.105 164.721 588.256 164.344C588.407 163.89 588.634 163.324 588.937 162.643C589.239 161.888 589.504 161.132 589.731 160.377C591.319 155.012 604.592 129.775 629.55 84.6653C654.508 39.5558 667.554 16.321 668.688 14.9609C669.898 13.5253 670.768 12.5052 671.297 11.9007C671.902 11.2207 672.545 10.654 673.226 10.2006C673.982 9.74727 674.512 9.44503 674.814 9.29391C675.192 9.14279 675.873 8.91611 676.856 8.61387C677.915 8.23607 678.974 7.85827 680.032 7.48047C681.167 7.10266 682.339 6.61152 683.549 6.00704C684.759 5.327 685.591 4.87364 686.045 4.64696C686.499 4.34472 687.066 4.19359 687.747 4.19359C688.503 4.19359 689.184 4.53362 689.789 5.21366C690.469 5.8937 690.81 6.76264 690.81 7.82049V8.61387C690.432 10.0495 680.562 27.9573 661.201 62.3372C641.915 96.7171 631.403 115.532 629.663 118.781C635.562 116.438 644.26 110.658 655.755 101.44C667.251 92.2213 673.037 86.1009 673.112 83.0785C673.264 80.0561 674.322 77.8648 676.289 76.5048C678.255 75.1447 680.373 74.4646 682.642 74.4646C684.986 74.4646 686.953 75.258 688.541 76.8448C690.205 78.356 690.999 80.8873 690.923 84.4386C690.848 87.9144 688.881 92.3724 685.024 97.8128C681.167 103.178 676.554 108.165 671.184 112.774C659.613 122.597 649.97 129.095 642.256 132.268C648.382 148.816 655.415 157.09 663.356 157.09C667.667 156.485 672.961 152.972 679.238 146.549C681.583 144.207 683.852 141.864 686.045 139.522C688.238 137.104 689.562 135.668 690.016 135.215C690.545 134.762 691.263 134.535 692.171 134.535C693.608 134.535 694.478 135.631 694.78 137.822C695.083 140.013 695.234 142.28 695.234 144.622C695.234 146.965 695.007 148.589 694.553 149.496C692.36 153.727 687.558 158.903 680.146 165.024C672.734 171.068 665.701 174.091 659.045 174.091C654.281 174.091 650.499 173.184 647.701 171.371C644.903 169.557 642.709 168.046 641.121 166.837C639.533 165.628 637.907 164.004 636.243 161.963C634.579 159.848 633.18 158.11 632.046 156.75C630.987 155.39 629.739 153.501 628.302 151.083C626.941 148.665 625.957 146.965 625.352 145.982C624.747 144.925 623.84 143.262 622.63 140.995C621.495 138.653 620.852 137.369 620.701 137.142C619.34 139.938 617.827 142.96 616.163 146.209C614.5 149.458 612.987 152.481 611.626 155.276C610.264 158.072 609.016 160.641 607.882 162.983C606.747 165.25 605.802 167.139 605.046 168.65C604.365 170.162 603.987 170.955 603.911 171.031C603.382 172.24 602.626 172.844 601.643 172.844Z" fill="#133348"/>
<path d="M701.331 147.456L701.218 149.269C701.218 151.158 701.936 152.783 703.373 154.143C704.81 155.503 706.134 156.183 707.344 156.183C716.419 156.183 724.436 154.823 731.394 152.103C738.428 149.383 741.944 146.662 741.944 143.942C741.944 142.658 740.659 141.562 738.087 140.655C735.591 139.673 731.318 138.502 725.268 137.142C719.293 135.706 714.945 134.611 712.222 133.855C709.499 133.024 707.344 132.268 705.756 131.588C704.168 130.908 702.541 129.964 700.878 128.755C697.323 126.261 695.546 122.559 695.546 117.647C695.546 112.66 697.361 107.749 700.991 102.913C704.697 98.0017 709.31 93.8081 714.831 90.3323C720.352 86.8565 726.289 83.7963 732.642 81.1517C745.196 75.9381 755.747 73.3312 764.293 73.3312C772.688 73.3312 777.868 75.1447 779.835 78.7716C780.44 80.0561 780.742 81.4917 780.742 83.0785V83.8719C780.742 87.8766 779.873 91.0123 778.133 93.2791C776.469 95.5459 773.784 97.5861 770.079 99.3995C766.448 101.213 763.537 102.12 761.343 102.12C759.226 102.12 757.864 101.969 757.259 101.666C756.73 101.364 756.276 100.986 755.898 100.533C755.52 100.004 755.028 99.6262 754.423 99.3995C753.894 99.1728 753.629 98.6061 753.629 97.6994C753.629 96.7927 754.007 95.886 754.764 94.9792C755.52 93.997 756.049 92.9769 756.352 91.9191C751.36 92.1457 746.142 93.3169 740.697 95.4326C735.251 97.4727 730.562 99.7773 726.629 102.346C722.772 104.915 719.558 107.371 716.987 109.713C714.415 112.056 713.13 113.794 713.13 114.927C713.13 115.985 714.869 116.854 718.348 117.534C734.003 120.632 744.289 123.314 749.205 125.581C754.121 127.848 757.524 130.417 759.415 133.288C761.306 136.16 762.251 138.766 762.251 141.109C762.251 145.945 760.322 150.516 756.465 154.823C752.608 159.13 747.844 162.643 742.171 165.364C729.995 171.333 719.369 174.318 710.293 174.318C701.294 174.318 695.054 172.92 691.575 170.124C688.172 167.404 686.47 164.155 686.47 160.377C686.47 156.599 687.416 153.123 689.306 149.949C691.273 146.7 693.768 145.076 696.794 145.076C699.819 145.076 701.331 145.869 701.331 147.456Z" fill="#133348"/>
<path d="M875.747 82.8518C875.747 88.0655 872.835 95.6971 867.012 105.747C861.188 115.721 853.701 125.846 844.55 136.122C835.474 146.398 825.832 155.314 815.622 162.87C805.412 170.351 797.433 174.091 791.685 174.091C788.584 174.091 785.748 172.957 783.177 170.691C780.605 168.424 779.32 164.835 779.32 159.923C779.32 154.936 781.664 147.116 786.353 136.462C791.042 125.808 795.655 116.816 800.193 109.487C796.185 112.434 793.727 113.907 792.819 113.907C791.987 113.907 790.891 112.925 789.529 110.96C788.244 108.996 787.601 107.484 787.601 106.427C787.601 105.293 787.79 104.462 788.168 103.933C803.067 87.3854 813.58 79.1116 819.706 79.1116C822.277 79.1116 824.432 79.8672 826.172 81.3784C827.911 82.8896 828.781 84.703 828.781 86.8187C828.781 88.9344 826.21 95.017 821.067 105.067C815.924 115.116 810.781 125.279 805.639 135.555C800.496 145.756 797.924 152.178 797.924 154.823C797.924 155.276 798.151 155.503 798.605 155.503C800.571 155.503 805.865 151.612 814.487 143.829C823.185 135.971 830.218 128.679 835.588 121.954C840.958 115.229 845.647 108.467 849.655 101.666C853.739 94.8659 855.781 90.4079 855.781 88.2922C855.781 86.1765 855.327 84.4386 854.42 83.0785C853.588 81.6429 853.172 80.1317 853.172 78.5449C853.172 76.8826 854.268 75.0691 856.462 73.1046C858.73 71.0644 861.604 70.0444 865.083 70.0444C872.193 70.0444 875.747 74.3135 875.747 82.8518Z" fill="#133348"/>
<path d="M856.258 166.821C856.258 162.212 858.073 158.132 861.703 154.58C865.333 150.954 868.888 149.14 872.367 149.14C878.644 149.14 881.783 151.709 881.783 156.847C881.783 161.079 880.006 165.159 876.451 169.088C872.896 173.093 868.888 175.095 864.426 175.095C858.981 175.095 856.258 172.337 856.258 166.821Z" fill="#133348"/>
<path d="M989.175 0C992.806 0 995.982 1.09562 998.705 3.28687C1001.5 5.40256 1002.9 8.57609 1002.9 12.8075C1002.9 17.0388 1000.56 23.6881 995.869 32.7554C991.18 41.747 985.545 50.9654 978.965 60.4104C972.386 69.7799 964.936 79.7539 956.617 90.3323C943.457 107.107 930.827 122.181 918.727 135.555C918.651 136.462 918.311 138.162 917.706 140.655C917.176 143.073 916.911 145.529 916.911 148.023C916.911 150.516 918.046 152.783 920.315 154.823C922.659 156.788 925.533 157.77 928.936 157.77C932.34 157.77 935.97 156.561 939.827 154.143C943.76 151.725 947.163 149.043 950.037 146.096C957.6 138.313 962.289 134.422 964.104 134.422C965.919 134.422 966.827 137.18 966.827 142.696V144.962C966.827 147.909 966.297 150.063 965.239 151.423C958.886 159.205 951.739 165.024 943.798 168.877C935.857 172.655 928.331 174.544 921.222 174.544C914.113 174.544 908.706 172.391 905 168.084C901.294 163.701 899.441 157.732 899.441 150.176C899.441 135.442 903.374 118.138 911.239 98.2661C919.18 78.3182 928.105 61.3549 938.012 47.3763C960.323 15.7921 977.377 0 989.175 0ZM984.07 18.8145C984.07 17.6811 983.692 17.1144 982.936 17.1144C980.289 17.1144 973.331 24.6704 962.062 39.7825C950.793 54.8945 942.625 66.9464 937.558 75.9381C932.567 84.9297 927.84 96.226 923.378 109.827C932.302 99.2484 944.63 82.7763 960.361 60.4104C976.167 37.969 984.07 24.1037 984.07 18.8145Z" fill="#133348"/>
<path d="M1051.63 82.8518C1051.63 88.0655 1048.71 95.6971 1042.89 105.747C1037.07 115.721 1029.58 125.846 1020.43 136.122C1011.35 146.398 1001.71 155.314 991.5 162.87C981.29 170.351 973.312 174.091 967.564 174.091C964.463 174.091 961.627 172.957 959.055 170.691C956.484 168.424 955.198 164.835 955.198 159.923C955.198 154.936 957.543 147.116 962.232 136.462C966.921 125.808 971.534 116.816 976.072 109.487C972.064 112.434 969.606 113.907 968.698 113.907C967.866 113.907 966.77 112.925 965.408 110.96C964.123 108.996 963.48 107.484 963.48 106.427C963.48 105.293 963.669 104.462 964.047 103.933C978.946 87.3854 989.458 79.1116 995.584 79.1116C998.156 79.1116 1000.31 79.8672 1002.05 81.3784C1003.79 82.8896 1004.66 84.703 1004.66 86.8187C1004.66 88.9344 1002.09 95.017 996.946 105.067C991.803 115.116 986.66 125.279 981.517 135.555C976.375 145.756 973.803 152.178 973.803 154.823C973.803 155.276 974.03 155.503 974.484 155.503C976.45 155.503 981.744 151.612 990.366 143.829C999.063 135.971 1006.1 128.679 1011.47 121.954C1016.84 115.229 1021.53 108.467 1025.53 101.666C1029.62 94.8659 1031.66 90.4079 1031.66 88.2922C1031.66 86.1765 1031.21 84.4386 1030.3 83.0785C1029.47 81.6429 1029.05 80.1317 1029.05 78.5449C1029.05 76.8826 1030.15 75.0691 1032.34 73.1046C1034.61 71.0644 1037.48 70.0444 1040.96 70.0444C1048.07 70.0444 1051.63 74.3135 1051.63 82.8518Z" fill="#133348"/>
<path d="M354.466 170.804L348.907 170.577H346.865C346.109 170.351 345.314 169.897 344.483 169.217C343.575 168.537 342.894 168.046 342.441 167.744C341.987 167.442 341.76 166.913 341.76 166.157C341.76 165.326 342.062 163.928 342.667 161.963C357.415 129.548 371.671 103.631 385.436 84.2119C386.948 82.0962 389.369 80.5095 392.696 79.4516C396.1 78.3182 399.39 77.7515 402.566 77.7515C404.457 77.7515 405.402 79.2249 405.402 82.1718C405.402 83.0029 405.1 84.1363 404.495 85.572C403.889 86.9321 402.377 89.1989 399.957 92.3724C397.537 95.546 394.663 99.1728 391.335 103.253C388.007 107.333 386.117 109.676 385.663 110.28C396.024 99.5506 405.364 91.579 413.684 86.3654C422.078 81.0762 428.129 78.4315 431.835 78.4315C435.616 78.4315 438.49 79.5272 440.456 81.7184C442.498 83.8341 443.519 86.1387 443.519 88.6322C443.519 91.0501 443.33 93.0902 442.952 94.7526C442.65 96.3393 442.045 98.0394 441.137 99.8529C440.229 101.591 439.435 103.102 438.755 104.386C438.15 105.595 437.091 107.22 435.578 109.26C434.066 111.225 433.007 112.585 432.402 113.34C431.872 114.096 430.7 115.532 428.885 117.647C427.146 119.763 426.2 120.934 426.049 121.161C428.167 119.045 431.116 115.909 434.898 111.754C438.679 107.598 441.855 104.122 444.427 101.326C447.074 98.5306 450.364 95.3948 454.297 91.9191C458.229 88.3677 461.897 85.4964 465.301 83.3052C473.469 78.1671 481.75 75.598 490.145 75.598C493.019 75.598 495.439 76.5048 497.405 78.3182C499.372 80.1317 500.355 82.3229 500.355 84.8919C500.355 87.3854 497.292 93.4303 491.166 103.026C485.04 112.547 478.914 122.143 472.788 131.815C466.738 141.411 463.712 147.456 463.712 149.949C463.712 153.425 464.355 155.503 465.641 156.183C466.927 156.788 468.477 157.014 470.292 156.863C472.107 156.712 474.641 155.541 477.893 153.35C481.221 151.158 484.17 148.891 486.742 146.549C490.901 142.771 494.758 139.106 498.313 135.555C499.069 134.875 499.901 134.535 500.809 134.535C502.246 134.535 503.115 135.631 503.418 137.822C503.72 140.013 503.872 142.28 503.872 144.622C503.872 146.965 503.645 148.589 503.191 149.496C500.998 153.727 496.157 158.903 488.67 165.024C481.183 171.144 473.998 174.204 467.116 174.204C466.284 174.204 465.679 174.166 465.301 174.091C457.511 173.335 452.103 171.22 449.078 167.744C446.129 164.192 444.654 159.999 444.654 155.163C444.654 150.327 446.28 144.471 449.532 137.595C452.86 130.719 456.49 124.486 460.423 118.894C464.355 113.303 467.948 108.278 471.2 103.82C474.527 99.2862 476.191 96.8305 476.191 96.4527C476.191 96.0749 475.889 95.886 475.284 95.886C472.939 95.886 467.721 99.664 459.628 107.22C445.788 120.141 433.839 132.608 423.78 144.622C421.133 147.796 414.856 155.843 404.948 168.764C403.814 170.275 401.999 171.031 399.503 171.031C397.083 171.031 394.549 170.577 391.902 169.671C389.255 168.688 387.932 167.442 387.932 165.93C387.932 165.175 393.944 154.596 405.969 134.195C417.994 113.718 424.007 102.573 424.007 100.76C424.007 98.8706 422.872 97.9261 420.604 97.9261C418.41 97.9261 413.835 101.251 406.877 107.9C387.743 126.186 372.919 144.358 362.407 162.417C361.726 163.475 360.403 165.137 358.436 167.404C356.47 169.671 355.146 170.804 354.466 170.804Z" fill="#133348"/>
</svg>
