<svg width="1072" height="261" viewBox="0 0 1072 261" fill="none" xmlns="http://www.w3.org/2000/svg">
<path d="M261.38 91.0467V261H22.9064C37.8158 226.987 57.2008 195.033 77.3417 163.79C85.5207 151.167 93.9925 138.736 102.824 126.566C105.718 122.605 108.926 118.271 112.711 113.322C111.926 114.959 111.122 116.65 110.297 118.4C103.719 132.265 93.8635 154.622 86.1884 172.751C85.7892 173.691 85.3955 174.62 85.0097 175.531C84.8003 176.023 84.5903 176.516 84.3798 177.011C77.435 194.019 69.5345 210.071 64.627 228.507L64.6299 228.626C64.6445 228.826 64.659 229.027 64.6735 229.227C64.8901 232.781 67.5388 235.473 70.1107 237.084L70.1299 237.096C72.7678 238.711 75.8906 240.045 79.3061 239.809C81.5403 239.628 84.0352 239.16 85.9959 237.338C114.035 207.255 139.478 175.321 165.697 143.89C172.436 135.7 179.152 127.542 185.893 119.363C187.588 117.308 189.287 115.248 190.987 113.187C186.229 121.034 183.081 126.363 180.458 130.793C178.565 134 176.968 136.724 175.27 139.629C175.14 139.852 175.01 140.075 174.879 140.298C167.705 152.484 155.123 174.896 149.071 186.781C148.62 187.655 148.172 188.528 147.73 189.392L147.728 189.397C147.373 190.099 147.034 190.772 146.685 191.471C143.305 198.297 139.981 205.146 137.096 212.906C136.715 213.949 136.351 215.01 136.016 216.083C135.253 218.631 134.447 221.199 134.58 224.187C134.85 228.661 137.223 232.906 140.506 235.781L140.517 235.791C144.389 239.282 149.852 240.313 154.73 239.893C164.971 238.095 172.033 231.094 179.292 225.084C179.573 224.837 179.855 224.587 180.14 224.334C189.465 216.02 197.767 207.314 202.737 199.875C203.106 199.326 203.457 198.786 203.784 198.264L203.786 198.26C205.452 195.579 206.43 192.933 206.177 190.772L206.159 190.673C205.236 187.915 204.664 186.401 204.497 186.297C204.573 186.203 204.562 185.55 204.347 184.447L204.354 184.479C204.297 183.862 204.204 183.093 204.012 182.186L203.935 181.839C203.771 180.568 203.49 179.09 203.147 177.377L203.14 177.35C202.931 176.539 202.699 175.68 202.254 174.766C202.011 174.32 201.783 173.805 201.086 173.381C200.736 173.168 200.157 173.12 199.763 173.29C199.358 173.449 199.101 173.684 198.878 173.913C198.759 174.038 198.656 174.164 198.556 174.296L198.529 174.334C198.318 174.647 198.074 174.955 197.805 175.254C197.215 175.945 196.785 176.607 196.311 177.309C190.822 184.038 183.931 192.416 175.79 200.008C172.024 203.423 168.008 206.838 163.513 208.809C170.655 191.788 180.249 175.598 189.367 159.395C190.109 158.087 190.874 156.743 191.69 155.315C196.19 147.435 201.723 137.978 207.275 128.698C212.745 119.549 218.226 110.571 222.676 103.346C224.084 101.06 225.5 98.7679 227.016 96.3239C230.358 90.9462 234.209 84.7512 239.755 75.9809L261.38 91.0467Z" fill="#FFD700"/>
<path d="M212.582 57.051C212.03 57.5694 211.497 58.0578 210.964 58.4943C202.031 66.8359 191.298 78.767 185.889 84.7011C185.165 85.4979 184.427 86.3122 183.648 87.1762C177.241 94.3011 169.618 103.01 164.198 109.414C162.326 111.623 160.512 113.793 158.518 116.193C153.437 122.33 147.116 129.939 135.865 143.832C132.113 148.499 127.811 153.86 122.84 160.14C116.624 167.998 112.083 174.068 108.347 179.168C107.116 180.85 105.972 182.426 104.887 183.927C106.42 180.521 108.407 176.123 111.744 168.747C117.976 154.997 123.362 143.372 128.028 133.323C137.567 112.808 144.101 98.9576 149.451 87.8232C150.101 86.4573 150.727 85.1401 151.337 83.8576C151.794 82.8967 152.234 81.9684 152.673 81.0372C155.183 75.2806 157.974 70.3134 159.92 63.5591C159.309 60.33 156.47 59.7594 154.518 58.9956C151.47 57.9827 148.206 57.5825 145.004 57.8289C142.767 58.0603 140.11 58.2938 138.329 60.5957L138.386 60.5219C138.352 60.5625 138.318 60.5924 138.295 60.6112C138.252 60.6019 138.2 60.5891 138.145 60.5736C138.017 60.5376 137.875 60.4907 137.734 60.4408C137.453 60.3417 137.166 60.2287 136.878 60.111C136.025 59.7003 135.066 59.4386 134.09 59.4095C133.855 59.4013 133.617 59.4059 133.379 59.4231C130.327 59.7773 127.97 61.5608 125.584 63.3688C113.808 73.1471 102.311 88.5034 91.2222 103.369C88.0294 107.698 84.899 112.018 81.8945 116.235C76.3488 124.016 69.7598 133.526 62.5813 144.356C57.7562 151.633 52.663 159.508 47.4285 167.848C47.1187 168.34 46.8086 168.832 46.4988 169.325C36.8852 184.543 27.4862 199.902 18.4322 215.466C15.812 219.971 13.2217 224.493 10.6667 229.035C7.17946 235.611 3.23041 241.82 0 248.533V91.0467L130.69 0L212.582 57.051Z" fill="#FFD700"/>
<path d="M204.366 186.102C204.407 186.213 204.438 186.281 204.463 186.302C204.445 186.329 204.442 186.404 204.452 186.526L204.391 186.316C204.387 186.255 204.378 186.183 204.366 186.102Z" fill="white"/>
<path d="M600.08 124.795C605.939 124.795 608.869 126.796 608.869 130.796C608.869 132.951 608.368 134.528 607.365 135.528C606.363 136.528 604.204 139.875 600.889 145.568C597.651 151.184 594.028 158.416 590.019 167.264C586.087 176.034 583.543 183.535 582.387 189.767C582.155 190.536 582.04 191.614 582.04 192.998C582.04 197.23 583.196 199.346 585.509 199.346C587.822 199.346 590.559 198.268 593.72 196.114C596.88 193.883 599.694 191.537 602.161 189.075C604.628 186.536 607.018 183.959 609.331 181.343C611.721 178.727 613.147 177.227 613.61 176.842C614.073 176.457 614.766 176.265 615.692 176.265C617.156 176.265 618.043 177.381 618.351 179.612C618.66 181.843 618.814 184.151 618.814 186.536C618.814 188.921 618.583 190.575 618.12 191.498C615.884 195.883 610.95 201.154 603.318 207.308C595.763 213.463 588.863 216.54 582.618 216.54C576.45 216.54 571.902 214.656 568.972 210.886C566.043 207.116 564.578 202.961 564.578 198.422C564.578 193.806 565.349 189.767 566.891 186.305C560.492 194.614 553.129 201.654 544.803 207.424C536.554 213.194 529.808 216.079 524.566 216.079C519.323 216.079 515.044 214.502 511.729 211.347C507.489 207.424 505.369 202 505.369 195.076C505.369 188.075 506.911 181.073 509.995 174.072C513.156 166.994 517.28 160.57 522.368 154.8C527.457 148.953 533.046 143.645 539.136 138.875C551.934 128.873 563.73 123.872 574.523 123.872C578.686 123.872 582.078 124.565 584.699 125.95C587.321 127.334 588.978 129.065 589.672 131.143C591.522 128.373 593.064 126.642 594.298 125.95C595.608 125.18 597.536 124.795 600.08 124.795ZM584.699 137.605C571.516 137.605 557.871 144.914 543.762 159.532C538.751 164.763 534.125 171.033 529.885 178.342C525.722 185.651 523.64 190.652 523.64 193.345C523.64 196.037 524.411 197.384 525.953 197.384C528.112 197.384 534.125 193.152 543.993 184.689C553.862 176.15 560.415 169.879 563.653 165.879C567.199 161.417 574.215 151.992 584.699 137.605Z" fill="white"/>
<path d="M613.299 215.271L605.898 213.655C603.662 213.425 601.812 212.001 600.347 209.386C599.961 208.693 599.73 208.27 599.653 208.116C599.499 207.962 599.422 207.77 599.422 207.539C599.422 207.308 599.499 207.001 599.653 206.616C599.807 206.154 600.038 205.577 600.347 204.885C600.655 204.115 600.925 203.346 601.156 202.577C602.775 197.114 616.305 171.418 641.747 125.488C667.188 79.5577 680.487 55.9002 681.643 54.5153C682.877 53.0536 683.763 52.0149 684.303 51.3995C684.92 50.7071 685.575 50.13 686.269 49.6684C687.04 49.2068 687.58 48.8991 687.888 48.7452C688.273 48.5913 688.967 48.3605 689.969 48.0528C691.049 47.6681 692.128 47.2834 693.207 46.8988C694.364 46.5141 695.559 46.014 696.792 45.3985C698.026 44.7061 698.874 44.2445 699.336 44.0137C699.799 43.706 700.377 43.5521 701.071 43.5521C701.842 43.5521 702.536 43.8983 703.153 44.5907C703.846 45.2831 704.193 46.1679 704.193 47.245V48.0528C703.808 49.5146 693.747 67.7482 674.011 102.754C654.352 137.759 643.635 156.916 641.862 160.224C647.876 157.839 656.742 151.954 668.46 142.567C680.178 133.181 686.076 126.95 686.153 123.872C686.307 120.795 687.387 118.564 689.391 117.179C691.396 115.794 693.554 115.102 695.867 115.102C698.257 115.102 700.262 115.909 701.881 117.525C703.577 119.064 704.386 121.641 704.309 125.257C704.232 128.796 702.227 133.335 698.296 138.875C694.364 144.337 689.661 149.415 684.187 154.108C672.392 164.109 662.562 170.726 654.699 173.957C660.943 190.806 668.113 199.23 676.208 199.23C680.602 198.615 685.999 195.037 692.398 188.498C694.788 186.113 697.101 183.728 699.336 181.343C701.572 178.881 702.921 177.419 703.384 176.957C703.924 176.496 704.656 176.265 705.581 176.265C707.046 176.265 707.933 177.381 708.241 179.612C708.549 181.843 708.703 184.151 708.703 186.536C708.703 188.921 708.472 190.575 708.01 191.498C705.774 195.807 700.878 201.077 693.323 207.308C685.768 213.463 678.598 216.54 671.814 216.54C666.957 216.54 663.102 215.617 660.249 213.771C657.397 211.924 655.161 210.386 653.542 209.155C651.923 207.924 650.266 206.27 648.57 204.192C646.873 202.038 645.447 200.269 644.291 198.884C643.211 197.499 641.939 195.576 640.475 193.114C639.087 190.652 638.085 188.921 637.468 187.921C636.851 186.844 635.926 185.151 634.693 182.843C633.536 180.458 632.881 179.15 632.727 178.919C631.339 181.766 629.797 184.843 628.101 188.151C626.405 191.46 624.863 194.537 623.475 197.384C622.088 200.23 620.815 202.846 619.659 205.231C618.503 207.539 617.539 209.462 616.768 211.001C616.074 212.54 615.689 213.348 615.612 213.425C615.072 214.656 614.301 215.271 613.299 215.271Z" fill="white"/>
<path d="M714.919 189.421L714.803 191.267C714.803 193.191 715.536 194.845 717 196.23C718.465 197.614 719.814 198.307 721.048 198.307C730.299 198.307 738.471 196.922 745.564 194.152C752.734 191.383 756.319 188.613 756.319 185.843C756.319 184.536 755.008 183.42 752.387 182.497C749.843 181.497 745.487 180.304 739.319 178.919C733.229 177.458 728.796 176.342 726.021 175.573C723.245 174.726 721.048 173.957 719.429 173.265C717.81 172.572 716.152 171.61 714.456 170.38C710.833 167.841 709.021 164.071 709.021 159.07C709.021 153.992 710.871 148.992 714.572 144.068C718.35 139.067 723.052 134.797 728.68 131.258C734.308 127.719 740.36 124.603 746.836 121.91C759.634 116.602 770.389 113.948 779.1 113.948C787.658 113.948 792.939 115.794 794.943 119.487C795.56 120.795 795.868 122.257 795.868 123.872V124.68C795.868 128.758 794.982 131.95 793.209 134.258C791.513 136.567 788.776 138.644 784.998 140.49C781.297 142.337 778.329 143.26 776.094 143.26C773.935 143.26 772.547 143.106 771.93 142.798C771.391 142.491 770.928 142.106 770.543 141.644C770.157 141.106 769.656 140.721 769.039 140.49C768.5 140.259 768.23 139.682 768.23 138.759C768.23 137.836 768.615 136.913 769.386 135.99C770.157 134.989 770.697 133.951 771.005 132.874C765.917 133.104 760.598 134.297 755.047 136.451C749.496 138.528 744.716 140.875 740.707 143.491C736.775 146.106 733.499 148.607 730.878 150.992C728.256 153.377 726.946 155.146 726.946 156.3C726.946 157.377 728.719 158.262 732.265 158.955C748.224 162.109 758.709 164.84 763.72 167.148C768.731 169.456 772.2 172.072 774.128 174.996C776.055 177.919 777.019 180.573 777.019 182.958C777.019 187.882 775.053 192.537 771.121 196.922C767.189 201.307 762.332 204.885 756.55 207.655C744.138 213.732 733.306 216.771 724.055 216.771C714.88 216.771 708.52 215.348 704.974 212.501C701.504 209.732 699.77 206.424 699.77 202.577C699.77 198.73 700.734 195.191 702.661 191.96C704.665 188.652 707.209 186.997 710.293 186.997C713.377 186.997 714.919 187.805 714.919 189.421Z" fill="white"/>
<path d="M892.714 123.641C892.714 128.95 889.746 136.72 883.809 146.953C877.873 157.108 870.241 167.417 860.912 177.881C851.661 188.344 841.831 197.422 831.423 205.116C821.016 212.732 812.882 216.54 807.023 216.54C803.862 216.54 800.971 215.386 798.35 213.078C795.729 210.77 794.418 207.116 794.418 202.115C794.418 197.037 796.808 189.075 801.588 178.227C806.368 167.379 811.07 158.224 815.696 150.761C811.61 153.762 809.104 155.262 808.179 155.262C807.331 155.262 806.214 154.262 804.826 152.261C803.515 150.261 802.86 148.722 802.86 147.645C802.86 146.491 803.053 145.645 803.438 145.106C818.626 128.258 829.342 119.833 835.587 119.833C838.208 119.833 840.405 120.603 842.178 122.141C843.951 123.68 844.838 125.526 844.838 127.681C844.838 129.835 842.217 136.028 836.974 146.26C831.732 156.493 826.489 166.84 821.247 177.304C816.005 187.69 813.383 194.229 813.383 196.922C813.383 197.384 813.615 197.614 814.077 197.614C816.082 197.614 821.478 193.652 830.267 185.728C839.133 177.727 846.303 170.303 851.776 163.455C857.25 156.608 862.03 149.722 866.116 142.798C870.279 135.874 872.361 131.335 872.361 129.181C872.361 127.027 871.898 125.257 870.973 123.872C870.125 122.41 869.701 120.872 869.701 119.256C869.701 117.564 870.819 115.717 873.055 113.717C875.367 111.64 878.297 110.601 881.843 110.601C889.09 110.601 892.714 114.948 892.714 123.641Z" fill="white"/>
<path d="M872.847 209.139C872.847 204.446 874.697 200.291 878.398 196.675C882.098 192.982 885.722 191.136 889.268 191.136C895.667 191.136 898.867 193.752 898.867 198.983C898.867 203.292 897.055 207.446 893.431 211.447C889.808 215.524 885.722 217.563 881.173 217.563C875.622 217.563 872.847 214.755 872.847 209.139Z" fill="white"/>
<path d="M1008.34 39.2822C1012.04 39.2822 1015.28 40.3978 1018.05 42.6289C1020.91 44.7831 1022.33 48.0143 1022.33 52.3227C1022.33 56.6311 1019.94 63.4013 1015.16 72.6335C1010.38 81.7888 1004.64 91.1749 997.932 100.792C991.225 110.332 983.631 120.487 975.15 131.258C961.736 148.338 948.861 163.686 936.526 177.304C936.449 178.227 936.102 179.958 935.485 182.497C934.945 184.959 934.676 187.459 934.676 189.998C934.676 192.537 935.832 194.845 938.145 196.922C940.535 198.922 943.464 199.923 946.934 199.923C950.403 199.923 954.104 198.692 958.035 196.23C962.044 193.768 965.513 191.037 968.443 188.036C976.153 180.112 980.932 176.15 982.783 176.15C984.633 176.15 985.558 178.958 985.558 184.574V186.882C985.558 189.883 985.018 192.075 983.939 193.46C977.463 201.384 970.178 207.308 962.083 211.232C953.988 215.079 946.317 217.002 939.07 217.002C931.823 217.002 926.311 214.809 922.533 210.424C918.756 205.962 916.867 199.884 916.867 192.191C916.867 177.188 920.876 159.57 928.894 139.336C936.989 119.025 946.086 101.753 956.185 87.5205C978.928 55.3616 996.313 39.2822 1008.34 39.2822ZM1003.14 58.439C1003.14 57.285 1002.75 56.708 1001.98 56.708C999.281 56.708 992.188 64.4015 980.701 79.7885C969.214 95.1755 960.888 107.447 955.722 116.602C950.634 125.757 945.816 137.259 941.267 151.107C950.364 140.336 962.931 123.565 978.966 100.792C995.079 77.942 1003.14 63.8245 1003.14 58.439Z" fill="white"/>
<path d="M1072 123.641C1072 128.95 1069.03 136.72 1063.1 146.953C1057.16 157.108 1049.53 167.417 1040.2 177.881C1030.95 188.344 1021.12 197.422 1010.71 205.116C1000.3 212.732 992.169 216.54 986.309 216.54C983.148 216.54 980.257 215.386 977.636 213.078C975.015 210.77 973.704 207.116 973.704 202.115C973.704 197.037 976.094 189.075 980.874 178.227C985.654 167.379 990.357 158.224 994.982 150.761C990.896 153.762 988.391 155.262 987.466 155.262C986.618 155.262 985.5 154.262 984.112 152.261C982.801 150.261 982.146 148.722 982.146 147.645C982.146 146.491 982.339 145.645 982.724 145.106C997.912 128.258 1008.63 119.833 1014.87 119.833C1017.49 119.833 1019.69 120.603 1021.46 122.141C1023.24 123.68 1024.12 125.526 1024.12 127.681C1024.12 129.835 1021.5 136.028 1016.26 146.26C1011.02 156.493 1005.78 166.84 1000.53 177.304C995.291 187.69 992.67 194.229 992.67 196.922C992.67 197.384 992.901 197.614 993.363 197.614C995.368 197.614 1000.76 193.652 1009.55 185.728C1018.42 177.727 1025.59 170.303 1031.06 163.455C1036.54 156.608 1041.32 149.722 1045.4 142.798C1049.57 135.874 1051.65 131.335 1051.65 129.181C1051.65 127.027 1051.18 125.257 1050.26 123.872C1049.41 122.41 1048.99 120.872 1048.99 119.256C1048.99 117.564 1050.11 115.717 1052.34 113.717C1054.65 111.64 1057.58 110.601 1061.13 110.601C1068.38 110.601 1072 114.948 1072 123.641Z" fill="white"/>
<path d="M361.333 213.194L355.667 212.963H353.585C352.814 212.732 352.005 212.271 351.156 211.578C350.231 210.886 349.538 210.386 349.075 210.078C348.612 209.77 348.381 209.232 348.381 208.462C348.381 207.616 348.689 206.193 349.306 204.192C364.34 171.187 378.872 144.799 392.903 125.026C394.445 122.872 396.912 121.256 400.304 120.179C403.774 119.025 407.127 118.448 410.365 118.448C412.293 118.448 413.256 119.949 413.256 122.949C413.256 123.795 412.948 124.949 412.331 126.411C411.714 127.796 410.173 130.104 407.705 133.335C405.238 136.567 402.309 140.259 398.917 144.414C395.525 148.568 393.597 150.953 393.135 151.569C403.697 140.644 413.218 132.527 421.698 127.219C430.256 121.833 436.423 119.141 440.201 119.141C444.056 119.141 446.985 120.256 448.99 122.487C451.071 124.642 452.112 126.988 452.112 129.527C452.112 131.989 451.919 134.066 451.534 135.759C451.225 137.374 450.609 139.105 449.684 140.952C448.758 142.721 447.949 144.26 447.255 145.568C446.638 146.799 445.559 148.453 444.017 150.53C442.475 152.531 441.396 153.915 440.779 154.685C440.239 155.454 439.044 156.916 437.194 159.07C435.421 161.224 434.457 162.417 434.303 162.648C436.462 160.493 439.468 157.301 443.323 153.069C447.178 148.838 450.416 145.299 453.037 142.452C455.735 139.605 459.089 136.413 463.098 132.874C467.107 129.258 470.846 126.334 474.315 124.103C482.642 118.871 491.083 116.256 499.641 116.256C502.571 116.256 505.038 117.179 507.042 119.025C509.047 120.872 510.049 123.103 510.049 125.719C510.049 128.258 506.926 134.412 500.682 144.183C494.437 153.877 488.192 163.648 481.948 173.495C475.78 183.266 472.696 189.421 472.696 191.96C472.696 195.499 473.352 197.614 474.662 198.307C475.973 198.922 477.553 199.153 479.404 198.999C481.254 198.845 483.837 197.653 487.152 195.422C490.544 193.191 493.55 190.883 496.172 188.498C500.412 184.651 504.344 180.92 507.967 177.304C508.738 176.611 509.586 176.265 510.511 176.265C511.976 176.265 512.863 177.381 513.171 179.612C513.479 181.843 513.634 184.151 513.634 186.536C513.634 188.921 513.402 190.575 512.94 191.498C510.704 195.807 505.77 201.077 498.138 207.308C490.505 213.54 483.181 216.656 476.166 216.656C475.318 216.656 474.701 216.617 474.315 216.54C466.375 215.771 460.862 213.617 457.779 210.078C454.772 206.462 453.268 202.192 453.268 197.268C453.268 192.344 454.926 186.382 458.241 179.381C461.633 172.38 465.334 166.033 469.343 160.339C473.352 154.646 477.014 149.53 480.329 144.991C483.721 140.375 485.417 137.874 485.417 137.49C485.417 137.105 485.109 136.913 484.492 136.913C482.102 136.913 476.782 140.76 468.533 148.453C454.425 161.609 442.244 174.303 431.99 186.536C429.292 189.767 422.893 197.961 412.794 211.117C411.637 212.655 409.787 213.425 407.243 213.425C404.776 213.425 402.193 212.963 399.495 212.04C396.797 211.04 395.447 209.77 395.447 208.232C395.447 207.462 401.576 196.691 413.835 175.919C426.093 155.069 432.222 143.721 432.222 141.875C432.222 139.952 431.065 138.99 428.752 138.99C426.517 138.99 421.852 142.375 414.76 149.145C395.255 167.764 380.144 186.267 369.428 204.654C368.734 205.731 367.385 207.424 365.38 209.732C363.376 212.04 362.027 213.194 361.333 213.194Z" fill="white"/>
</svg>
